<svg xmlns="http://www.w3.org/2000/svg" viewBox="0 0 1200 750" role="img" aria-labelledby="title desc">
  <title id="title">Lab Safe Checklist poster</title>
  <desc id="desc">Abstract poster artwork with checklist motifs and a mobile phone frame.</desc>
  <rect width="1200" height="750" fill="#f7f3ef" rx="36" />
  <rect x="90" y="70" width="420" height="610" rx="40" fill="#173042" />
  <rect x="140" y="135" width="320" height="480" rx="26" fill="#fffaf5" />
  <rect x="610" y="80" width="500" height="200" rx="28" fill="#ffffff" />
  <rect x="610" y="320" width="500" height="160" rx="28" fill="#c75b39" />
  <rect x="610" y="520" width="500" height="160" rx="28" fill="#ffffff" />
  <g fill="#c75b39">
    <circle cx="220" cy="220" r="22" />
    <circle cx="220" cy="320" r="22" />
    <circle cx="220" cy="420" r="22" />
  </g>
  <g stroke="#173042" stroke-width="14" stroke-linecap="round">
    <path d="M208 220l12 12 28-32" />
    <path d="M208 320l12 12 28-32" />
    <path d="M208 420l12 12 28-32" />
  </g>
  <text x="640" y="165" fill="#173042" font-family="Georgia, serif" font-size="54" font-weight="700">Lab Safe Checklist</text>
  <text x="640" y="225" fill="#173042" font-family="Arial, sans-serif" font-size="28">Mobile-first compliance flow for supervised spaces</text>
  <text x="170" y="565" fill="#173042" font-family="Arial, sans-serif" font-size="24">Checklist UI mockup</text>
</svg>

